<svg width="32" height="32" viewBox="0 0 32 32" fill="none" xmlns="http://www.w3.org/2000/svg">
<path d="M28 20C28 20.7072 27.719 21.3855 27.219 21.8856C26.7189 22.3857 26.0406 22.6667 25.3333 22.6667H9.33333L4 28V6.66667C4 5.95942 4.28095 5.28115 4.78105 4.78105C5.28115 4.28095 5.95942 4 6.66667 4H25.3333C26.0406 4 26.7189 4.28095 27.219 4.78105C27.719 5.28115 28 5.95942 28 6.66667V20Z" stroke="#8E8E93" stroke-width="2" stroke-linecap="round" stroke-linejoin="round"/>
<path d="M16.8337 13.9997C16.8337 13.5394 16.4606 13.1663 16.0003 13.1663C15.5401 13.1663 15.167 13.5394 15.167 13.9997C15.167 14.4599 15.5401 14.833 16.0003 14.833C16.4606 14.833 16.8337 14.4599 16.8337 13.9997Z" stroke="#8E8E93" stroke-width="1.25" stroke-linecap="round" stroke-linejoin="round"/>
<path d="M10.9997 13.9997C10.9997 13.5394 10.6266 13.1663 10.1663 13.1663C9.7061 13.1663 9.33301 13.5394 9.33301 13.9997C9.33301 14.4599 9.7061 14.833 10.1663 14.833C10.6266 14.833 10.9997 14.4599 10.9997 13.9997Z" stroke="#8E8E93" stroke-width="1.25" stroke-linecap="round" stroke-linejoin="round"/>
<path d="M22.6667 13.9997C22.6667 13.5394 22.2936 13.1663 21.8333 13.1663C21.3731 13.1663 21 13.5394 21 13.9997C21 14.4599 21.3731 14.833 21.8333 14.833C22.2936 14.833 22.6667 14.4599 22.6667 13.9997Z" stroke="#8E8E93" stroke-width="1.25" stroke-linecap="round" stroke-linejoin="round"/>
</svg>
