<svg width="28" height="25" viewBox="0 0 28 25" fill="none" xmlns="http://www.w3.org/2000/svg">
<path d="M14.3662 0C14.0613 0 13.7883 0.141334 13.6044 0.36435L13.5037 0.439785C10.4875 -0.481448 7.0654 0.231053 4.67678 2.57724C2.55876 4.65761 1.74849 7.53608 2.24595 10.2271L2.21513 10.2569L0.869435 11.5787C-0.289812 12.7174 -0.289812 14.5635 0.869435 15.7022C1.55676 16.3773 2.49728 16.6522 3.39075 16.5267C3.51929 17.0122 3.77716 17.4713 4.16434 17.8515C4.68807 18.366 5.35884 18.6481 6.04379 18.6976C6.09419 19.3706 6.38131 20.0296 6.90517 20.5441C7.42904 21.0588 8.09999 21.3407 8.7851 21.3902C8.83542 22.0632 9.12256 22.7224 9.64652 23.2371C10.7114 24.2829 12.384 24.3681 13.5479 23.4925L14.209 24.1418C15.3739 25.2861 17.2626 25.2861 18.4276 24.1418C18.9496 23.6291 19.2375 22.9741 19.2918 22.3041C19.9722 22.2518 20.6378 21.9701 21.1586 21.4587C21.6806 20.9459 21.9677 20.2898 22.0196 19.6194C22.692 19.5628 23.3484 19.2817 23.8632 18.7761C24.2679 18.3785 24.5314 17.8946 24.6537 17.3847C25.5337 17.495 26.4547 17.2181 27.1305 16.5542C28.2898 15.4156 28.2898 13.5694 27.1305 12.4308L25.9401 11.2615L26.167 10.3885C26.6939 8.36147 26.4276 6.21556 25.4273 4.37796C23.9522 1.66857 21.0997 0.00699598 18.027 0.00699598H15.9885C15.8967 0.00233204 15.8044 0 15.7116 0H14.3662ZM23.1311 11.3632L24.1062 12.36C24.1673 12.4226 24.2353 12.4759 24.3078 12.5194L25.6741 13.8615C26.0289 14.21 26.0289 14.7751 25.6741 15.1236C25.3192 15.4721 24.7439 15.4721 24.389 15.1236L22.1046 12.8797C21.7025 12.4846 21.0503 12.4846 20.648 12.8797L20.6253 12.902C20.2232 13.297 20.2232 13.9375 20.6253 14.3326L22.4065 16.0821C22.7618 16.431 22.7618 16.9965 22.4065 17.3453C22.0826 17.6637 21.573 17.692 21.2175 17.4284C20.806 17.1234 20.228 17.1642 19.8651 17.524C19.5025 17.8839 19.4664 18.452 19.7811 18.8532C20.0552 19.2026 20.0283 19.7077 19.702 20.0281C19.3738 20.3504 18.8554 20.3752 18.4993 20.1008C18.0904 19.7855 17.5063 19.8193 17.1376 20.1793C16.7688 20.5393 16.7311 21.1127 17.0496 21.5164C17.3295 21.8712 17.3028 22.3853 16.971 22.7111C16.6105 23.0653 16.026 23.0653 15.6655 22.7111L15.0227 22.0798L15.1902 21.9153C16.3495 20.7766 16.3495 18.9304 15.1902 17.7917C14.6664 17.2772 13.9954 16.9953 13.3103 16.9457C13.26 16.2727 12.9728 15.6135 12.4489 15.0989C11.9251 14.5845 11.2544 14.3024 10.5694 14.2528C10.519 13.5799 10.2319 12.9209 9.70804 12.4064C9.02072 11.7312 8.0802 11.4564 7.18673 11.5818C7.05819 11.0964 6.80032 10.6372 6.41315 10.2569C5.80563 9.66021 5.00029 9.37621 4.20447 9.40492C3.9889 7.48142 4.63184 5.48269 6.13332 4.00789C7.55255 2.61387 9.44837 1.97329 11.3056 2.08611L9.11075 3.73001C7.68396 4.79861 7.41798 6.84263 8.52042 8.2663C9.59708 9.65665 11.5789 9.93484 12.9723 8.89122L15.6706 6.87028H18.5569L23.1311 11.3632ZM10.2833 5.41879L14.7384 2.08212H15.7116C15.778 2.08212 15.8438 2.08397 15.9091 2.08761C15.927 2.08861 15.9449 2.08911 15.9629 2.08911H18.027C20.416 2.08911 22.5818 3.38127 23.6822 5.40274C24.3888 6.70098 24.5989 8.19509 24.2854 9.62175L19.8491 5.08724C19.6617 4.89558 19.4091 4.78816 19.146 4.78816H15.3469C15.1364 4.78816 14.9313 4.85695 14.7606 4.98482L11.7997 7.20242C11.2712 7.59831 10.491 7.48879 10.0826 6.96137C9.69998 6.46728 9.78815 5.78968 10.2833 5.41879ZM12.452 19.2192C12.8071 18.874 13.38 18.875 13.7337 19.2225C14.0885 19.5711 14.0885 20.136 13.7337 20.4845L12.388 21.8064C12.0332 22.155 11.4579 22.155 11.103 21.8064C10.7482 21.4579 10.7482 20.8928 11.103 20.5443L12.452 19.2192ZM10.9956 17.7884L9.64666 19.1134C9.29184 19.462 8.71654 19.462 8.3617 19.1134C8.01392 18.7718 8.00701 18.2223 8.34098 17.8723L8.36235 17.8515L9.70804 16.5298L9.72889 16.5091C10.0851 16.1812 10.6446 16.188 10.9924 16.5296C11.3461 16.877 11.3472 17.4396 10.9956 17.7884ZM8.25086 15.0989L6.90517 16.4207L6.88432 16.4414C6.52812 16.7694 5.96862 16.7625 5.62085 16.4209C5.26604 16.0724 5.26604 15.5073 5.62085 15.1588L6.96655 13.837C7.32137 13.4885 7.89667 13.4885 8.2515 13.837C8.59929 14.1786 8.6062 14.7282 8.27221 15.0781L8.25086 15.0989ZM4.95661 12.9497L3.61093 14.2715C3.25609 14.62 2.68081 14.62 2.32597 14.2715C1.97114 13.923 1.97114 13.3579 2.32597 13.0094L3.67165 11.6876C4.02649 11.3391 4.60179 11.3391 4.95661 11.6876C5.31144 12.0361 5.31144 12.6012 4.95661 12.9497Z" fill="#212121"/>
</svg>
