<svg width="40" height="40" viewBox="0 0 40 40" fill="none" xmlns="http://www.w3.org/2000/svg">
<path d="M6.73294 30.8902H33.2676C34.8578 30.8902 35.7955 30.0699 35.7955 28.8645C35.7955 27.1904 34.1046 25.6837 32.6482 24.1938C31.5432 23.0386 31.2419 20.6614 31.1247 18.7362C30.9908 12.3076 29.2999 7.87118 24.8301 6.26404C24.2107 4.08768 22.4696 2.34668 20.0087 2.34668C17.5309 2.34668 15.8067 4.08768 15.1704 6.26404C10.7174 7.87118 9.00972 12.3076 8.89258 18.7362C8.75865 20.6614 8.47401 23.0386 7.35236 24.1938C5.91265 25.6837 4.20508 27.1904 4.20508 28.8645C4.20508 30.0699 5.15929 30.8902 6.73294 30.8902ZM14.9026 33.167C15.1035 35.6112 17.1627 37.6535 20.0087 37.6535C22.8379 37.6535 24.897 35.6112 25.1147 33.167H14.9026Z" fill="#8E8E93"/>
</svg>
