<svg width="73" height="62" viewBox="0 0 73 62" fill="none" xmlns="http://www.w3.org/2000/svg">
<path d="M12.7246 29.7742L32.0699 38.2205L33.3793 35.3261L14.0341 26.8799L12.7246 29.7742ZM34.3367 60.0003V36.7733H31.1125V60.0003H34.3367ZM33.3793 38.2205L52.7246 29.7742L51.4152 26.8799L32.0699 35.3261L33.3793 38.2205Z" fill="#8E8E93"/>
<path d="M13.3789 50.7305V29.1501C13.3789 28.6494 13.6791 28.1957 14.1448 27.9923L32.2004 20.1092C32.5339 19.9636 32.9144 19.9636 33.248 20.1092L51.3036 27.9923C51.7694 28.1957 52.0694 28.6494 52.0694 29.1501V50.7305C52.0694 51.2311 51.7694 51.6849 51.3036 51.8883L33.248 59.7713C32.9144 59.9168 32.5339 59.9168 32.2004 59.7713L14.1448 51.8883C13.6791 51.6849 13.3789 51.2311 13.3789 50.7305Z" stroke="#8E8E93" stroke-width="3.3" stroke-linecap="round" stroke-linejoin="round"/>
<path d="M23.0518 24.1035L41.6312 32.2153C42.097 32.4187 42.397 32.8724 42.397 33.3731V40.9959" stroke="#8E8E93" stroke-width="3.3" stroke-linecap="round" stroke-linejoin="round"/>
<g clip-path="url(#clip0_8_2310)">
<path d="M61 18V22" stroke="#CDCDCD" stroke-width="2.8" stroke-linecap="round" stroke-linejoin="round"/>
<path d="M61 34V38" stroke="#CDCDCD" stroke-width="2.8" stroke-linecap="round" stroke-linejoin="round"/>
<path d="M53.9297 20.9297L56.7597 23.7597" stroke="#CDCDCD" stroke-width="2.8" stroke-linecap="round" stroke-linejoin="round"/>
<path d="M65.2402 32.2402L68.0702 35.0702" stroke="#CDCDCD" stroke-width="2.8" stroke-linecap="round" stroke-linejoin="round"/>
<path d="M51 28H55" stroke="#CDCDCD" stroke-width="2.8" stroke-linecap="round" stroke-linejoin="round"/>
<path d="M67 28H71" stroke="#CDCDCD" stroke-width="2.8" stroke-linecap="round" stroke-linejoin="round"/>
<path d="M53.9297 35.0702L56.7597 32.2402" stroke="#CDCDCD" stroke-width="2.8" stroke-linecap="round" stroke-linejoin="round"/>
<path d="M65.2402 23.7597L68.0702 20.9297" stroke="#CDCDCD" stroke-width="2.8" stroke-linecap="round" stroke-linejoin="round"/>
</g>
<defs>
<clipPath id="clip0_8_2310">
<rect width="24" height="24" fill="white" transform="translate(49 16)"/>
</clipPath>
</defs>
</svg>
