<svg width="58" height="63" viewBox="0 0 58 63" fill="none" xmlns="http://www.w3.org/2000/svg">
<g filter="url(#filter0_i_11_640)">
<path d="M16.7246 29.7742L36.0699 38.2205L37.3793 35.3261L18.0341 26.8799L16.7246 29.7742ZM38.3367 60.0003V36.7733H35.1125V60.0003H38.3367ZM37.3793 38.2205L56.7246 29.7742L55.4152 26.8799L36.0699 35.3261L37.3793 38.2205Z" fill="#009EA9"/>
<path d="M17.3789 50.7305V29.1501C17.3789 28.6494 17.6791 28.1957 18.1448 27.9923L36.2004 20.1092C36.5339 19.9636 36.9144 19.9636 37.248 20.1092L55.3036 27.9923C55.7694 28.1957 56.0694 28.6494 56.0694 29.1501V50.7305C56.0694 51.2311 55.7694 51.6849 55.3036 51.8883L37.248 59.7713C36.9144 59.9168 36.5339 59.9168 36.2004 59.7713L18.1448 51.8883C17.6791 51.6849 17.3789 51.2311 17.3789 50.7305Z" stroke="#009EA9" stroke-width="3.3" stroke-linecap="round" stroke-linejoin="round"/>
<path d="M27.0527 24.1035L45.6321 32.2153C46.0979 32.4187 46.398 32.8724 46.398 33.3731V40.9959" stroke="#009EA9" stroke-width="3.3" stroke-linecap="round" stroke-linejoin="round"/>
</g>
<circle cx="13.5" cy="49.5" r="10.5" fill="white"/>
<g clip-path="url(#clip0_11_640)">
<path d="M13.5 36C10.83 36 8.21987 36.7918 5.99981 38.2752C3.77974 39.7586 2.04942 41.867 1.02763 44.3338C0.00584936 46.8006 -0.261496 49.515 0.259405 52.1337C0.780305 54.7525 2.06606 57.1579 3.95406 59.0459C5.84207 60.934 8.24754 62.2197 10.8663 62.7406C13.485 63.2615 16.1994 62.9942 18.6662 61.9724C21.133 60.9506 23.2414 59.2203 24.7248 57.0002C26.2082 54.7801 27 52.17 27 49.5C26.9962 45.9207 25.5727 42.4892 23.0417 39.9583C20.5108 37.4274 17.0793 36.0038 13.5 36ZM13.5 59.625C11.4975 59.625 9.5399 59.0312 7.87486 57.9186C6.20981 56.8061 4.91206 55.2248 4.14573 53.3747C3.37939 51.5246 3.17888 49.4888 3.56956 47.5247C3.96023 45.5607 4.92454 43.7566 6.34055 42.3405C7.75656 40.9245 9.56066 39.9602 11.5247 39.5695C13.4888 39.1789 15.5246 39.3794 17.3747 40.1457C19.2248 40.9121 20.8061 42.2098 21.9186 43.8749C23.0312 45.5399 23.625 47.4975 23.625 49.5C23.6221 52.1844 22.5544 54.7581 20.6562 56.6562C18.7581 58.5544 16.1844 59.6221 13.5 59.625Z" fill="#182958"/>
<path d="M18.0674 44.9319C17.9107 44.7751 17.7247 44.6508 17.52 44.566C17.3153 44.4812 17.0958 44.4375 16.8742 44.4375C16.6526 44.4375 16.4332 44.4812 16.2285 44.566C16.0238 44.6508 15.8378 44.7751 15.6811 44.9319L13.4992 47.1138L11.3174 44.9319C11.0006 44.6169 10.5719 44.4404 10.1252 44.441C9.67852 44.4416 9.2503 44.6193 8.93444 44.9352C8.61858 45.2511 8.44086 45.6793 8.44023 46.126C8.43961 46.5727 8.61615 47.0014 8.93113 47.3181L11.113 49.5L8.93113 51.6819C8.77373 51.8384 8.64876 52.0244 8.56338 52.2294C8.47801 52.4343 8.4339 52.654 8.4336 52.876C8.43329 53.0979 8.47678 53.3178 8.56159 53.5229C8.64639 53.7281 8.77084 53.9145 8.9278 54.0714C9.08476 54.2284 9.27116 54.3529 9.4763 54.4377C9.68144 54.5225 9.90129 54.566 10.1233 54.5656C10.3453 54.5653 10.565 54.5212 10.7699 54.4359C10.9748 54.3505 11.1608 54.2255 11.3174 54.0681L13.4992 51.8862L15.6811 54.0681C15.9979 54.3831 16.4266 54.5596 16.8733 54.559C17.32 54.5584 17.7482 54.3807 18.064 54.0648C18.3799 53.7489 18.5576 53.3207 18.5583 52.874C18.5589 52.4273 18.3823 51.9986 18.0674 51.6819L15.8855 49.5L18.0674 47.3181C18.2241 47.1615 18.3484 46.9755 18.4333 46.7707C18.5181 46.566 18.5617 46.3466 18.5617 46.125C18.5617 45.9034 18.5181 45.684 18.4333 45.4793C18.3484 45.2745 18.2241 45.0885 18.0674 44.9319Z" fill="#182958"/>
</g>
<defs>
<filter id="filter0_i_11_640" x="4" y="0" width="53.7188" height="63.5303" filterUnits="userSpaceOnUse" color-interpolation-filters="sRGB">
<feFlood flood-opacity="0" result="BackgroundImageFix"/>
<feBlend mode="normal" in="SourceGraphic" in2="BackgroundImageFix" result="shape"/>
<feColorMatrix in="SourceAlpha" type="matrix" values="0 0 0 0 0 0 0 0 0 0 0 0 0 0 0 0 0 0 127 0" result="hardAlpha"/>
<feOffset dy="4"/>
<feGaussianBlur stdDeviation="1"/>
<feComposite in2="hardAlpha" operator="arithmetic" k2="-1" k3="1"/>
<feColorMatrix type="matrix" values="0 0 0 0 0 0 0 0 0 0 0 0 0 0 0 0 0 0 0.25 0"/>
<feBlend mode="normal" in2="shape" result="effect1_innerShadow_11_640"/>
</filter>
<clipPath id="clip0_11_640">
<rect width="27" height="27" fill="white" transform="translate(0 36)"/>
</clipPath>
</defs>
</svg>
