<svg width="53" height="47" viewBox="0 0 53 47" fill="none" xmlns="http://www.w3.org/2000/svg">
<g filter="url(#filter0_i_11_840)">
<path d="M33.3327 20V36.6667H6.66602V20" stroke="#009EA9" stroke-width="3.33" stroke-linecap="round" stroke-linejoin="round"/>
<path d="M36.6673 11.667H3.33398V20.0003H36.6673V11.667Z" stroke="#009EA9" stroke-width="3.33" stroke-linecap="round" stroke-linejoin="round"/>
<path d="M20 36.667V11.667" stroke="#009EA9" stroke-width="3.33" stroke-linecap="round" stroke-linejoin="round"/>
<path d="M20.0006 11.6663H12.5007C11.3956 11.6663 10.3358 11.2274 9.55437 10.446C8.77297 9.66455 8.33398 8.60474 8.33398 7.49967C8.33398 6.39461 8.77297 5.3348 9.55437 4.5534C10.3358 3.77199 11.3956 3.33301 12.5007 3.33301C18.334 3.33301 20.0006 11.6663 20.0006 11.6663Z" stroke="#009EA9" stroke-width="3.33" stroke-linecap="round" stroke-linejoin="round"/>
<path d="M20 11.6663H27.5C28.6051 11.6663 29.6649 11.2274 30.4463 10.446C31.2277 9.66455 31.6667 8.60474 31.6667 7.49967C31.6667 6.39461 31.2277 5.3348 30.4463 4.5534C29.6649 3.77199 28.6051 3.33301 27.5 3.33301C21.6667 3.33301 20 11.6663 20 11.6663Z" stroke="#009EA9" stroke-width="3.33" stroke-linecap="round" stroke-linejoin="round"/>
</g>
<circle cx="39.5" cy="33.5" r="9.5" fill="white"/>
<path fill-rule="evenodd" clip-rule="evenodd" d="M39.5 22.25C45.7132 22.25 50.75 27.2868 50.75 33.5C50.75 39.7132 45.7132 44.75 39.5 44.75C33.2868 44.75 28.25 39.7132 28.25 33.5C28.25 27.2868 33.2868 22.25 39.5 22.25ZM39.5 24.5C34.5294 24.5 30.5 28.5294 30.5 33.5C30.5 38.4706 34.5294 42.5 39.5 42.5C44.4706 42.5 48.5 38.4706 48.5 33.5C48.5 28.5294 44.4706 24.5 39.5 24.5ZM43.2045 29.3295L37.25 35.284L35.7955 33.8295C35.3562 33.3902 34.6438 33.3902 34.2045 33.8295C33.7652 34.2688 33.7652 34.9812 34.2045 35.4205L36.4545 37.6705C36.8938 38.1098 37.6062 38.1098 38.0455 37.6705L44.7955 30.9205C45.2348 30.4812 45.2348 29.7688 44.7955 29.3295C44.3562 28.8902 43.6438 28.8902 43.2045 29.3295Z" fill="#182958" stroke="#182958" stroke-width="0.75"/>
<defs>
<filter id="filter0_i_11_840" x="0" y="0" width="40" height="42" filterUnits="userSpaceOnUse" color-interpolation-filters="sRGB">
<feFlood flood-opacity="0" result="BackgroundImageFix"/>
<feBlend mode="normal" in="SourceGraphic" in2="BackgroundImageFix" result="shape"/>
<feColorMatrix in="SourceAlpha" type="matrix" values="0 0 0 0 0 0 0 0 0 0 0 0 0 0 0 0 0 0 127 0" result="hardAlpha"/>
<feOffset dy="4"/>
<feGaussianBlur stdDeviation="1"/>
<feComposite in2="hardAlpha" operator="arithmetic" k2="-1" k3="1"/>
<feColorMatrix type="matrix" values="0 0 0 0 0 0 0 0 0 0 0 0 0 0 0 0 0 0 0.25 0"/>
<feBlend mode="normal" in2="shape" result="effect1_innerShadow_11_840"/>
</filter>
</defs>
</svg>
